<svg xmlns="http://www.w3.org/2000/svg" viewBox="0 0 21.979 30"><defs><style>.a{fill:#e45d5d;}</style></defs><g transform="translate(-15.2 -2.5)"><g transform="translate(15.2 2.5)"><path class="a" d="M31.968,67.6c-.379.663-.789,1.295-1.2,1.895,2.653.6,4.232,1.642,4.232,2.432,0,1.168-3.505,2.937-8.811,2.937s-8.811-1.768-8.811-2.937c0-.789,1.579-1.8,4.232-2.432-.411-.6-.821-1.232-1.2-1.895-3.032.789-5.211,2.211-5.211,4.326,0,3.347,5.526,5.116,10.989,5.116s10.989-1.768,10.989-5.116C37.179,69.811,35,68.389,31.968,67.6Z" transform="translate(-15.2 -47.042)"/><path class="a" d="M32.3,26.5c2.242-3.316,7.611-11.621,7.611-15.379a8.605,8.605,0,1,0-17.211,0c0,3.758,5.4,12.063,7.642,15.379A1.212,1.212,0,0,0,32.3,26.5ZM27.311,11.121A4.011,4.011,0,1,1,31.321,15.1,4.016,4.016,0,0,1,27.311,11.121Z" transform="translate(-20.332 -2.5)"/></g></g></svg>