<svg xmlns="http://www.w3.org/2000/svg" width="73.708" height="73.708" viewBox="0 0 73.708 73.708"><defs><style>.a{fill:#bfbfbf;}</style></defs><g transform="translate(0 0)"><path class="a" d="M-4360.144-68.4A36.9,36.9,0,0,0-4397-31.551,36.9,36.9,0,0,0-4360.144,5.3a36.9,36.9,0,0,0,36.854-36.855A36.9,36.9,0,0,0-4360.144-68.4Zm-.146,15.607a11.639,11.639,0,0,1,11.639,11.639,11.639,11.639,0,0,1-11.639,11.639,11.638,11.638,0,0,1-11.639-11.639A11.64,11.64,0,0,1-4360.289-52.8Zm20.759,47.108a32.907,32.907,0,0,1-20.615,7.234,32.913,32.913,0,0,1-20.6-7.214c.524-9.327,6.666-18.749,14.179-18.749h12.842c7.529,0,13.686,9.08,14.188,18.421a0,0,0,0,1,0,0Z" transform="translate(4396.998 68.404)"/></g></svg>